<svg id="mermaid-1780849523542-5gafjuses" width="100%" xmlns="http://www.w3.org/2000/svg" class="flowchart" style="max-width: 712.1450656597057px;" viewBox="0 0 712.1450656597057 1855.371347892019" role="graphics-document document" aria-roledescription="flowchart-v2"><style>#mermaid-1780849523542-5gafjuses{font-family:"trebuchet ms",verdana,arial,sans-serif;font-size:16px;fill:#333;}@keyframes edge-animation-frame{from{stroke-dashoffset:0;}}@keyframes dash{to{stroke-dashoffset:0;}}#mermaid-1780849523542-5gafjuses .edge-animation-slow{stroke-dasharray:9,5!important;stroke-dashoffset:900;animation:dash 50s linear infinite;stroke-linecap:round;}#mermaid-1780849523542-5gafjuses .edge-animation-fast{stroke-dasharray:9,5!important;stroke-dashoffset:900;animation:dash 20s linear infinite;stroke-linecap:round;}#mermaid-1780849523542-5gafjuses .error-icon{fill:#552222;}#mermaid-1780849523542-5gafjuses .error-text{fill:#552222;stroke:#552222;}#mermaid-1780849523542-5gafjuses .edge-thickness-normal{stroke-width:1px;}#mermaid-1780849523542-5gafjuses .edge-thickness-thick{stroke-width:3.5px;}#mermaid-1780849523542-5gafjuses .edge-pattern-solid{stroke-dasharray:0;}#mermaid-1780849523542-5gafjuses .edge-thickness-invisible{stroke-width:0;fill:none;}#mermaid-1780849523542-5gafjuses .edge-pattern-dashed{stroke-dasharray:3;}#mermaid-1780849523542-5gafjuses .edge-pattern-dotted{stroke-dasharray:2;}#mermaid-1780849523542-5gafjuses .marker{fill:#333333;stroke:#333333;}#mermaid-1780849523542-5gafjuses .marker.cross{stroke:#333333;}#mermaid-1780849523542-5gafjuses svg{font-family:"trebuchet ms",verdana,arial,sans-serif;font-size:16px;}#mermaid-1780849523542-5gafjuses p{margin:0;}#mermaid-1780849523542-5gafjuses .label{font-family:"trebuchet ms",verdana,arial,sans-serif;color:#333;}#mermaid-1780849523542-5gafjuses .cluster-label text{fill:#333;}#mermaid-1780849523542-5gafjuses .cluster-label span{color:#333;}#mermaid-1780849523542-5gafjuses .cluster-label span p{background-color:transparent;}#mermaid-1780849523542-5gafjuses .label text,#mermaid-1780849523542-5gafjuses span{fill:#333;color:#333;}#mermaid-1780849523542-5gafjuses .node rect,#mermaid-1780849523542-5gafjuses .node circle,#mermaid-1780849523542-5gafjuses .node ellipse,#mermaid-1780849523542-5gafjuses .node polygon,#mermaid-1780849523542-5gafjuses .node path{fill:#ECECFF;stroke:#9370DB;stroke-width:1px;}#mermaid-1780849523542-5gafjuses .rough-node .label text,#mermaid-1780849523542-5gafjuses .node .label text,#mermaid-1780849523542-5gafjuses .image-shape .label,#mermaid-1780849523542-5gafjuses .icon-shape .label{text-anchor:middle;}#mermaid-1780849523542-5gafjuses .node .katex path{fill:#000;stroke:#000;stroke-width:1px;}#mermaid-1780849523542-5gafjuses .rough-node .label,#mermaid-1780849523542-5gafjuses .node .label,#mermaid-1780849523542-5gafjuses .image-shape .label,#mermaid-1780849523542-5gafjuses .icon-shape .label{text-align:center;}#mermaid-1780849523542-5gafjuses .node.clickable{cursor:pointer;}#mermaid-1780849523542-5gafjuses .root .anchor path{fill:#333333!important;stroke-width:0;stroke:#333333;}#mermaid-1780849523542-5gafjuses .arrowheadPath{fill:#333333;}#mermaid-1780849523542-5gafjuses .edgePath .path{stroke:#333333;stroke-width:2.0px;}#mermaid-1780849523542-5gafjuses .flowchart-link{stroke:#333333;fill:none;}#mermaid-1780849523542-5gafjuses .edgeLabel{background-color:rgba(232,232,232, 0.8);text-align:center;}#mermaid-1780849523542-5gafjuses .edgeLabel p{background-color:rgba(232,232,232, 0.8);}#mermaid-1780849523542-5gafjuses .edgeLabel rect{opacity:0.5;background-color:rgba(232,232,232, 0.8);fill:rgba(232,232,232, 0.8);}#mermaid-1780849523542-5gafjuses .labelBkg{background-color:rgba(232, 232, 232, 0.5);}#mermaid-1780849523542-5gafjuses .cluster rect{fill:#ffffde;stroke:#aaaa33;stroke-width:1px;}#mermaid-1780849523542-5gafjuses .cluster text{fill:#333;}#mermaid-1780849523542-5gafjuses .cluster span{color:#333;}#mermaid-1780849523542-5gafjuses div.mermaidTooltip{position:absolute;text-align:center;max-width:200px;padding:2px;font-family:"trebuchet ms",verdana,arial,sans-serif;font-size:12px;background:hsl(80, 100%, 96.2745098039%);border:1px solid #aaaa33;border-radius:2px;pointer-events:none;z-index:100;}#mermaid-1780849523542-5gafjuses .flowchartTitleText{text-anchor:middle;font-size:18px;fill:#333;}#mermaid-1780849523542-5gafjuses rect.text{fill:none;stroke-width:0;}#mermaid-1780849523542-5gafjuses .icon-shape,#mermaid-1780849523542-5gafjuses .image-shape{background-color:rgba(232,232,232, 0.8);text-align:center;}#mermaid-1780849523542-5gafjuses .icon-shape p,#mermaid-1780849523542-5gafjuses .image-shape p{background-color:rgba(232,232,232, 0.8);padding:2px;}#mermaid-1780849523542-5gafjuses .icon-shape rect,#mermaid-1780849523542-5gafjuses .image-shape rect{opacity:0.5;background-color:rgba(232,232,232, 0.8);fill:rgba(232,232,232, 0.8);}#mermaid-1780849523542-5gafjuses .label-icon{display:inline-block;height:1em;overflow:visible;vertical-align:-0.125em;}#mermaid-1780849523542-5gafjuses .node .label-icon path{fill:currentColor;stroke:revert;stroke-width:revert;}#mermaid-1780849523542-5gafjuses :root{--mermaid-font-family:"trebuchet ms",verdana,arial,sans-serif;}</style><g><marker id="mermaid-1780849523542-5gafjuses_flowchart-v2-pointEnd" class="marker flowchart-v2" viewBox="0 0 10 10" refX="5" refY="5" markerUnits="userSpaceOnUse" markerWidth="8" markerHeight="8" orient="auto"><path d="M 0 0 L 10 5 L 0 10 z" class="arrowMarkerPath" style="stroke-width: 1px; stroke-dasharray: 1px, 0px;"></path></marker><marker id="mermaid-1780849523542-5gafjuses_flowchart-v2-pointStart" class="marker flowchart-v2" viewBox="0 0 10 10" refX="4.5" refY="5" markerUnits="userSpaceOnUse" markerWidth="8" markerHeight="8" orient="auto"><path d="M 0 5 L 10 10 L 10 0 z" class="arrowMarkerPath" style="stroke-width: 1px; stroke-dasharray: 1px, 0px;"></path></marker><marker id="mermaid-1780849523542-5gafjuses_flowchart-v2-circleEnd" class="marker flowchart-v2" viewBox="0 0 10 10" refX="11" refY="5" markerUnits="userSpaceOnUse" markerWidth="11" markerHeight="11" orient="auto"><circle cx="5" cy="5" r="5" class="arrowMarkerPath" style="stroke-width: 1px; stroke-dasharray: 1px, 0px;"></circle></marker><marker id="mermaid-1780849523542-5gafjuses_flowchart-v2-circleStart" class="marker flowchart-v2" viewBox="0 0 10 10" refX="-1" refY="5" markerUnits="userSpaceOnUse" markerWidth="11" markerHeight="11" orient="auto"><circle cx="5" cy="5" r="5" class="arrowMarkerPath" style="stroke-width: 1px; stroke-dasharray: 1px, 0px;"></circle></marker><marker id="mermaid-1780849523542-5gafjuses_flowchart-v2-crossEnd" class="marker cross flowchart-v2" viewBox="0 0 11 11" refX="12" refY="5.2" markerUnits="userSpaceOnUse" markerWidth="11" markerHeight="11" orient="auto"><path d="M 1,1 l 9,9 M 10,1 l -9,9" class="arrowMarkerPath" style="stroke-width: 2px; stroke-dasharray: 1px, 0px;"></path></marker><marker id="mermaid-1780849523542-5gafjuses_flowchart-v2-crossStart" class="marker cross flowchart-v2" viewBox="0 0 11 11" refX="-1" refY="5.2" markerUnits="userSpaceOnUse" markerWidth="11" markerHeight="11" orient="auto"><path d="M 1,1 l 9,9 M 10,1 l -9,9" class="arrowMarkerPath" style="stroke-width: 2px; stroke-dasharray: 1px, 0px;"></path></marker><g class="root"><g class="clusters"><g class="cluster " id="Group4" data-look="classic"><rect style="fill:#ffffe0 !important;stroke:#d3d3d3 !important;stroke-width:1px !important" x="154.61085545462754" y="1606.366475080913" width="476.83168064994004" height="241"></rect><g class="cluster-label " transform="translate(293.02669577959756, 1606.366475080913)"><foreignObject width="200" height="48"><div style="display: table; white-space: break-spaces; line-height: 1.5; max-width: 200px; text-align: center; width: 200px;" xmlns="http://www.w3.org/1999/xhtml"><span class="nodeLabel ">4. Veri Paketleme ve ROS Çıktısı</span></div></foreignObject></g></g><g class="cluster " id="Group3" data-look="classic"><rect style="fill:#ffffe0 !important;stroke:#d3d3d3 !important;stroke-width:1px !important" x="93.22834795436455" y="1068.3082375404565" width="610.9133612998801" height="488.0582375404565"></rect><g class="cluster-label " transform="translate(298.6850286043046, 1068.3082375404565)"><foreignObject width="200" height="48"><div style="display: table; white-space: break-spaces; line-height: 1.5; max-width: 200px; text-align: center; width: 200px;" xmlns="http://www.w3.org/1999/xhtml"><span class="nodeLabel ">3. Sınıflandırma ve Derin Öğrenme - CNN</span></div></foreignObject></g></g><g class="cluster " id="Group2" data-look="classic"><rect style="fill:#ffffe0 !important;stroke:#d3d3d3 !important;stroke-width:1px !important" x="8" y="516" width="529.9550406822043" height="502.3082375404565"></rect><g class="cluster-label " transform="translate(172.97752034110215, 516)"><foreignObject width="200" height="48"><div style="display: table; white-space: break-spaces; line-height: 1.5; max-width: 200px; text-align: center; width: 200px;" xmlns="http://www.w3.org/1999/xhtml"><span class="nodeLabel ">2. Nesne Tespiti - YOLO/SSD</span></div></foreignObject></g></g><g class="cluster " id="Group1" data-look="classic"><rect style="fill:#ffffe0 !important;stroke:#d3d3d3 !important;stroke-width:1px !important" x="116.47000902614184" y="8" width="315.2400211040416" height="458"></rect><g class="cluster-label " transform="translate(174.09001957816264, 8)"><foreignObject width="200" height="48"><div style="display: table; white-space: break-spaces; line-height: 1.5; max-width: 200px; text-align: center; width: 200px;" xmlns="http://www.w3.org/1999/xhtml"><span class="nodeLabel ">1. Düğüm Başlatma ve Dinleme</span></div></foreignObject></g></g></g><g class="edgePaths"><path d="M274.59,72.5L274.507,76.583C274.423,80.667,274.257,88.833,274.173,96.417C274.09,104,274.09,111,274.09,114.5L274.09,118" id="L_A_B_0" class=" edge-thickness-normal edge-pattern-solid edge-thickness-normal edge-pattern-solid flowchart-link" style="" marker-end="url(#mermaid-1780849523542-5gafjuses_flowchart-v2-pointEnd)"></path><path d="M274.09,200L274.09,206.167C274.09,212.333,274.09,224.667,274.164,236.417C274.239,248.167,274.388,259.334,274.462,264.917L274.537,270.5" id="L_B_C_0" class=" edge-thickness-normal edge-pattern-solid edge-thickness-normal edge-pattern-solid flowchart-link" style="" marker-end="url(#mermaid-1780849523542-5gafjuses_flowchart-v2-pointEnd)"></path><path d="M274.59,313.5L274.507,317.583C274.423,321.667,274.257,329.833,274.173,337.417C274.09,345,274.09,352,274.09,355.5L274.09,359" id="L_C_D_0" class=" edge-thickness-normal edge-pattern-solid edge-thickness-normal edge-pattern-solid flowchart-link" style="" marker-end="url(#mermaid-1780849523542-5gafjuses_flowchart-v2-pointEnd)"></path><path d="M274.09,441L274.09,445.167C274.09,449.333,274.09,457.667,274.09,466C274.09,474.333,274.09,482.667,274.09,491C274.09,499.333,274.09,507.667,274.09,515.333C274.09,523,274.09,530,274.09,533.5L274.09,537" id="L_D_E_0" class=" edge-thickness-normal edge-pattern-solid edge-thickness-normal edge-pattern-solid flowchart-link" style="" marker-end="url(#mermaid-1780849523542-5gafjuses_flowchart-v2-pointEnd)"></path><path d="M274.09,619L274.09,623.167C274.09,627.333,274.09,635.667,274.09,643.333C274.09,651,274.09,658,274.09,661.5L274.09,665" id="L_E_F_0" class=" edge-thickness-normal edge-pattern-solid edge-thickness-normal edge-pattern-solid flowchart-link" style="" marker-end="url(#mermaid-1780849523542-5gafjuses_flowchart-v2-pointEnd)"></path><path d="M230.877,798.094L217.423,811.463C203.969,824.832,177.061,851.57,163.607,870.439C150.153,889.308,150.153,900.308,150.153,905.808L150.153,911.308" id="L_F_G_0" class=" edge-thickness-normal edge-pattern-solid edge-thickness-normal edge-pattern-solid flowchart-link" style="" marker-end="url(#mermaid-1780849523542-5gafjuses_flowchart-v2-pointEnd)"></path><path d="M317.303,798.094L330.757,811.463C344.211,824.832,371.119,851.57,384.573,870.439C398.027,889.308,398.027,900.308,398.027,905.808L398.027,911.308" id="L_F_H_0" class=" edge-thickness-normal edge-pattern-solid edge-thickness-normal edge-pattern-solid flowchart-link" style="" marker-end="url(#mermaid-1780849523542-5gafjuses_flowchart-v2-pointEnd)"></path><path d="M398.027,993.308L398.027,997.475C398.027,1001.642,398.027,1009.975,398.027,1018.308C398.027,1026.642,398.027,1034.975,398.027,1043.308C398.027,1051.642,398.027,1059.975,398.027,1067.642C398.027,1075.308,398.027,1082.308,398.027,1085.808L398.027,1089.308" id="L_H_I_0" class=" edge-thickness-normal edge-pattern-solid edge-thickness-normal edge-pattern-solid flowchart-link" style="" marker-end="url(#mermaid-1780849523542-5gafjuses_flowchart-v2-pointEnd)"></path><path d="M398.027,1171.308L398.027,1175.475C398.027,1179.642,398.027,1187.975,398.027,1195.642C398.027,1203.308,398.027,1210.308,398.027,1213.808L398.027,1217.308" id="L_I_J_0" class=" edge-thickness-normal edge-pattern-solid edge-thickness-normal edge-pattern-solid flowchart-link" style="" marker-end="url(#mermaid-1780849523542-5gafjuses_flowchart-v2-pointEnd)"></path><path d="M353.764,1335.102L336.52,1348.646C319.275,1362.19,284.787,1389.278,267.543,1408.322C250.298,1427.366,250.298,1438.366,250.298,1443.866L250.298,1449.366" id="L_J_K_0" class=" edge-thickness-normal edge-pattern-solid edge-thickness-normal edge-pattern-solid flowchart-link" style="" marker-end="url(#mermaid-1780849523542-5gafjuses_flowchart-v2-pointEnd)"></path><path d="M442.289,1335.102L459.534,1348.646C476.778,1362.19,511.266,1389.278,528.511,1408.322C545.755,1427.366,545.755,1438.366,545.755,1443.866L545.755,1449.366" id="L_J_L_0" class=" edge-thickness-normal edge-pattern-solid edge-thickness-normal edge-pattern-solid flowchart-link" style="" marker-end="url(#mermaid-1780849523542-5gafjuses_flowchart-v2-pointEnd)"></path><path d="M250.298,1531.366L250.298,1535.533C250.298,1539.7,250.298,1548.033,250.298,1556.366C250.298,1564.7,250.298,1573.033,250.298,1581.366C250.298,1589.7,250.298,1598.033,259.304,1606.101C268.31,1614.17,286.322,1621.973,295.328,1625.875L304.334,1629.776" id="L_K_M_0" class=" edge-thickness-normal edge-pattern-solid edge-thickness-normal edge-pattern-solid flowchart-link" style="" marker-end="url(#mermaid-1780849523542-5gafjuses_flowchart-v2-pointEnd)"></path><path d="M545.755,1531.366L545.755,1535.533C545.755,1539.7,545.755,1548.033,545.755,1556.366C545.755,1564.7,545.755,1573.033,545.755,1581.366C545.755,1589.7,545.755,1598.033,536.749,1606.101C527.743,1614.17,509.731,1621.973,500.725,1625.875L491.719,1629.776" id="L_L_M_0" class=" edge-thickness-normal edge-pattern-solid edge-thickness-normal edge-pattern-solid flowchart-link" style="" marker-end="url(#mermaid-1780849523542-5gafjuses_flowchart-v2-pointEnd)"></path><path d="M398.027,1709.366L398.027,1713.533C398.027,1717.7,398.027,1726.033,398.097,1733.783C398.167,1741.533,398.308,1748.7,398.378,1752.284L398.448,1755.867" id="L_M_N_0" class=" edge-thickness-normal edge-pattern-solid edge-thickness-normal edge-pattern-solid flowchart-link" style="" marker-end="url(#mermaid-1780849523542-5gafjuses_flowchart-v2-pointEnd)"></path></g><g class="edgeLabels"><g class="edgeLabel"><g class="label" transform="translate(0, 0)"><foreignObject width="0" height="0"><div style="display: table-cell; white-space: nowrap; line-height: 1.5; max-width: 200px; text-align: center;" xmlns="http://www.w3.org/1999/xhtml" class="labelBkg"><span class="edgeLabel "></span></div></foreignObject></g></g><g class="edgeLabel" transform="translate(274.0900195781627, 237)"><g class="label" transform="translate(-37.5, -12)"><foreignObject width="75" height="24"><div style="display: table-cell; white-space: nowrap; line-height: 1.5; max-width: 200px; text-align: center;" xmlns="http://www.w3.org/1999/xhtml" class="labelBkg"><span class="edgeLabel "><p>0.1s Timer</p></span></div></foreignObject></g></g><g class="edgeLabel"><g class="label" transform="translate(0, 0)"><foreignObject width="0" height="0"><div style="display: table-cell; white-space: nowrap; line-height: 1.5; max-width: 200px; text-align: center;" xmlns="http://www.w3.org/1999/xhtml" class="labelBkg"><span class="edgeLabel "></span></div></foreignObject></g></g><g class="edgeLabel"><g class="label" transform="translate(0, 0)"><foreignObject width="0" height="0"><div style="display: table-cell; white-space: nowrap; line-height: 1.5; max-width: 200px; text-align: center;" xmlns="http://www.w3.org/1999/xhtml" class="labelBkg"><span class="edgeLabel "></span></div></foreignObject></g></g><g class="edgeLabel"><g class="label" transform="translate(0, 0)"><foreignObject width="0" height="0"><div style="display: table-cell; white-space: nowrap; line-height: 1.5; max-width: 200px; text-align: center;" xmlns="http://www.w3.org/1999/xhtml" class="labelBkg"><span class="edgeLabel "></span></div></foreignObject></g></g><g class="edgeLabel" transform="translate(150.15334337672778, 878.3082375404565)"><g class="label" transform="translate(-19.11833971461844, -12)"><foreignObject width="38.23667942923688" height="24"><div style="display: table-cell; white-space: nowrap; line-height: 1.5; max-width: 200px; text-align: center;" xmlns="http://www.w3.org/1999/xhtml" class="labelBkg"><span class="edgeLabel "><p>Hayır</p></span></div></foreignObject></g></g><g class="edgeLabel" transform="translate(398.0266957795975, 878.3082375404565)"><g class="label" transform="translate(-16.01000231227469, -12)"><foreignObject width="32.02000462454938" height="24"><div style="display: table-cell; white-space: nowrap; line-height: 1.5; max-width: 200px; text-align: center;" xmlns="http://www.w3.org/1999/xhtml" class="labelBkg"><span class="edgeLabel "><p>Evet</p></span></div></foreignObject></g></g><g class="edgeLabel"><g class="label" transform="translate(0, 0)"><foreignObject width="0" height="0"><div style="display: table-cell; white-space: nowrap; line-height: 1.5; max-width: 200px; text-align: center;" xmlns="http://www.w3.org/1999/xhtml" class="labelBkg"><span class="edgeLabel "></span></div></foreignObject></g></g><g class="edgeLabel"><g class="label" transform="translate(0, 0)"><foreignObject width="0" height="0"><div style="display: table-cell; white-space: nowrap; line-height: 1.5; max-width: 200px; text-align: center;" xmlns="http://www.w3.org/1999/xhtml" class="labelBkg"><span class="edgeLabel "></span></div></foreignObject></g></g><g class="edgeLabel" transform="translate(250.29835545462754, 1416.366475080913)"><g class="label" transform="translate(-17.77667253932547, -12)"><foreignObject width="35.55334507865094" height="24"><div style="display: table-cell; white-space: nowrap; line-height: 1.5; max-width: 200px; text-align: center;" xmlns="http://www.w3.org/1999/xhtml" class="labelBkg"><span class="edgeLabel "><p>Çilek</p></span></div></foreignObject></g></g><g class="edgeLabel" transform="translate(545.7550361045676, 1416.366475080913)"><g class="label" transform="translate(-50.5600053640325, -12)"><foreignObject width="101.120010728065" height="24"><div style="display: table-cell; white-space: nowrap; line-height: 1.5; max-width: 200px; text-align: center;" xmlns="http://www.w3.org/1999/xhtml" class="labelBkg"><span class="edgeLabel "><p>Yaprak/Gövde</p></span></div></foreignObject></g></g><g class="edgeLabel"><g class="label" transform="translate(0, 0)"><foreignObject width="0" height="0"><div style="display: table-cell; white-space: nowrap; line-height: 1.5; max-width: 200px; text-align: center;" xmlns="http://www.w3.org/1999/xhtml" class="labelBkg"><span class="edgeLabel "></span></div></foreignObject></g></g><g class="edgeLabel"><g class="label" transform="translate(0, 0)"><foreignObject width="0" height="0"><div style="display: table-cell; white-space: nowrap; line-height: 1.5; max-width: 200px; text-align: center;" xmlns="http://www.w3.org/1999/xhtml" class="labelBkg"><span class="edgeLabel "></span></div></foreignObject></g></g><g class="edgeLabel"><g class="label" transform="translate(0, 0)"><foreignObject width="0" height="0"><div style="display: table-cell; white-space: nowrap; line-height: 1.5; max-width: 200px; text-align: center;" xmlns="http://www.w3.org/1999/xhtml" class="labelBkg"><span class="edgeLabel "></span></div></foreignObject></g></g></g><g class="nodes"><g class="node default  " id="flowchart-A-0" transform="translate(274.0900195781627, 52.5)"><g class="basic label-container outer-path"><path d="M-10.218338188739533 -19.5 C-2.9422717328158683 -19.5, 4.333794723107797 -19.5, 10.218338188739533 -19.5 C10.218338188739533 -19.5, 10.218338188739532 -19.5, 10.218338188739532 -19.5 C10.687439842477417 -19.484956823015604, 11.156541496215304 -19.46991364603121, 11.467707478363433 -19.45993515863156 C11.803869138913761 -19.427506047531814, 12.140030799464089 -19.395076936432073, 12.711942841587398 -19.3399052695533 C13.168152643519337 -19.266148806736798, 13.624362445451274 -19.192392343920293, 13.94593144841629 -19.140403561325773 C14.394572471410362 -19.038004175483657, 14.843213494404432 -18.935604789641538, 15.164602574974923 -18.862249829261074 C15.548942256307393 -18.748179829281753, 15.933281937639864 -18.63410982930243, 16.362948440200135 -18.50658706670804 C16.79135841643259 -18.348928235276087, 17.21976839266505 -18.191269403844135, 17.536044783887327 -18.074876768247425 C17.932050957033635 -17.899576582501304, 18.328057130179946 -17.724276396755187, 18.679071101531918 -17.568892924097174 C19.007898631212502 -17.3973438124869, 19.336726160893086 -17.225794700876623, 19.787330452816317 -16.990714730406097 C20.062143845731832 -16.824121236637954, 20.336957238647347 -16.65752774286981, 20.85626876234523 -16.342718045390892 C21.146517611763006 -16.140253012707237, 21.43676646118078 -15.93778798002358, 21.881493533318245 -15.627565626425154 C22.21040223780624 -15.365269687224192, 22.539310942294236 -15.102973748023228, 22.858791897241403 -14.848196188198123 C23.148456183804587 -14.585130747238484, 23.438120470367767 -14.322065306278846, 23.78414792550752 -14.007812326905688 C23.972121293361532 -13.813714391695907, 24.160094661215545 -13.619616456486124, 24.653759131708185 -13.10986736009568 C24.91709200127777 -12.800541587434486, 25.180424870847357 -12.49121581477329, 25.464052096866112 -12.158051136245305 C25.688929501603326 -11.856735900650461, 25.913806906340543 -11.555420665055616, 26.211697153380168 -11.156274872382312 C26.39924198746348 -10.868155644390932, 26.58678682154679 -10.58003641639955, 26.89362206734378 -10.108655082055241 C27.077320782495622 -9.782479411791158, 27.261019497647467 -9.456303741527073, 27.507024663013034 -9.019496659696287 C27.702347943982346 -8.613903687514798, 27.89767122495166 -8.208310715333308, 28.049384337547874 -7.893275190886684 C28.220255415576126 -7.47122032458935, 28.39112649360438 -7.049165458292016, 28.51847241870986 -6.734618561215508 C28.639861737003645 -6.369013275275967, 28.761251055297432 -6.003407989336426, 28.912361322954414 -5.548287939305138 C29.001244442244005 -5.209338083266351, 29.090127561533595 -4.870388227227565, 29.229432476285094 -4.339158212148133 C29.308564657016646 -3.9328311886839384, 29.387696837748198 -3.526504165219744, 29.46838296532131 -3.1121979531509023 C29.510031071253 -2.7891834678934733, 29.55167917718469 -2.4661689826360442, 29.6282308912489 -1.872449005199798 C29.655313871395258 -1.4506097284321844, 29.682396851541615 -1.0287704516645706, 29.708319404652947 -0.6250057626472757 C29.708319404652947 -0.26725055032704065, 29.708319404652947 0.0905046619931944, 29.708319404652947 0.625005762647271 C29.67742584407796 1.1061979054359918, 29.64653228350297 1.5873900482247125, 29.6282308912489 1.8724490051997846 C29.594497500900335 2.1340785193318865, 29.560764110551766 2.395708033463989, 29.46838296532131 3.1121979531508885 C29.416375410632458 3.379245754677581, 29.364367855943602 3.6462935562042738, 29.229432476285094 4.339158212148129 C29.109931015051664 4.794869076092121, 28.99042955381823 5.250579940036115, 28.912361322954418 5.548287939305125 C28.792587850986095 5.909026553562519, 28.672814379017773 6.269765167819913, 28.518472418709862 6.734618561215495 C28.41505641817913 6.990058081938758, 28.311640417648395 7.245497602662021, 28.049384337547878 7.893275190886679 C27.860011075090576 8.286512822317977, 27.67063781263327 8.679750453749277, 27.507024663013038 9.019496659696284 C27.290406946291956 9.40412335065692, 27.073789229570878 9.78875004161756, 26.893622067343784 10.108655082055236 C26.73936115958542 10.345641261225841, 26.585100251827058 10.582627440396447, 26.21169715338018 11.156274872382301 C25.93834351995871 11.522543838138763, 25.664989886537242 11.888812803895224, 25.46405209686612 12.158051136245302 C25.166627793425036 12.507422646989495, 24.869203489983953 12.856794157733688, 24.653759131708192 13.10986736009567 C24.467881060653934 13.301801729332638, 24.28200298959968 13.493736098569606, 23.784147925507522 14.007812326905684 C23.540947341300658 14.228680662747513, 23.297746757093794 14.449548998589341, 22.85879189724142 14.848196188198111 C22.621670732983173 15.037294006634879, 22.384549568724925 15.226391825071644, 21.88149353331825 15.627565626425152 C21.58205372750429 15.836441872420695, 21.282613921690334 16.045318118416237, 20.85626876234524 16.34271804539089 C20.459299703375198 16.58336302178766, 20.062330644405154 16.824007998184435, 19.78733045281632 16.990714730406093 C19.550284149910194 17.114381634796814, 19.313237847004068 17.238048539187538, 18.679071101531918 17.56889292409717 C18.3253516764953 17.725474020846946, 17.97163225145868 17.88205511759672, 17.536044783887338 18.07487676824742 C17.084997813920527 18.24086622262769, 16.633950843953713 18.40685567700796, 16.36294844020015 18.506587066708033 C15.970964087500478 18.62292596502144, 15.578979734800807 18.739264863334853, 15.164602574974946 18.86224982926107 C14.898273701967705 18.923037656566656, 14.631944828960465 18.98382548387224, 13.9459314484163 19.140403561325773 C13.660540941223696 19.186543285292235, 13.375150434031093 19.232683009258697, 12.711942841587412 19.3399052695533 C12.31081807362887 19.378601293495144, 11.909693305670327 19.41729731743699, 11.467707478363433 19.45993515863156 C11.073810294064376 19.47256667465767, 10.67991310976532 19.485198190683786, 10.218338188739537 19.5 C10.218338188739535 19.5, 10.218338188739535 19.5, 10.218338188739533 19.5 C5.848018336640055 19.5, 1.4776984845405767 19.5, -10.21833818873953 19.5 C-10.673930980374738 19.48539002592983, -11.129523772009946 19.470780051859663, -11.467707478363426 19.45993515863156 C-11.896933761919898 19.418528215276996, -12.326160045476371 19.377121271922437, -12.711942841587405 19.3399052695533 C-13.067179274176146 19.282473398032028, -13.42241570676489 19.22504152651076, -13.945931448416292 19.140403561325773 C-14.398338642788655 19.037144571443125, -14.850745837161018 18.933885581560478, -15.164602574974921 18.862249829261074 C-15.558214142175705 18.74542798222516, -15.951825709376491 18.628606135189248, -16.362948440200128 18.506587066708043 C-16.73300194309994 18.37040395690383, -17.10305544599975 18.234220847099618, -17.53604478388733 18.074876768247425 C-17.991739055382077 17.87315443194698, -18.447433326876826 17.671432095646534, -18.679071101531914 17.568892924097174 C-18.987712065252488 17.407875131018123, -19.29635302897306 17.246857337939073, -19.787330452816313 16.990714730406097 C-20.157262173991377 16.766459947069674, -20.52719389516644 16.54220516373325, -20.85626876234522 16.3427180453909 C-21.136000893184026 16.147589020326524, -21.415733024022828 15.95245999526215, -21.881493533318242 15.627565626425156 C-22.206619548724774 15.368286281105078, -22.531745564131302 15.109006935784999, -22.858791897241403 14.848196188198125 C-23.156702943218438 14.577641258536122, -23.454613989195472 14.307086328874119, -23.78414792550751 14.007812326905695 C-24.05485194544426 13.728288201107633, -24.32555596538101 13.44876407530957, -24.65375913170819 13.109867360095677 C-24.819585489373942 12.91507828459443, -24.985411847039693 12.720289209093181, -25.464052096866112 12.158051136245307 C-25.629465782607628 11.936411866848458, -25.79487946834914 11.714772597451608, -26.211697153380168 11.156274872382316 C-26.475378590482748 10.751189376612786, -26.739060027585328 10.346103880843255, -26.893622067343777 10.108655082055252 C-27.096548744451113 9.748338218296908, -27.29947542155845 9.388021354538566, -27.507024663013034 9.019496659696289 C-27.721356670995913 8.574431659149527, -27.935688678978792 8.129366658602764, -28.049384337547874 7.893275190886686 C-28.198877995751 7.524022964861704, -28.34837165395413 7.1547707388367225, -28.51847241870986 6.73461856121551 C-28.599660110647864 6.490094168600267, -28.680847802585873 6.245569775985025, -28.912361322954414 5.5482879393051325 C-28.977987586854162 5.298026552452702, -29.04361385075391 5.047765165600271, -29.22943247628509 4.339158212148136 C-29.309028415896957 3.9304498848489917, -29.388624355508828 3.521741557549847, -29.46838296532131 3.112197953150904 C-29.52259538831062 2.691737105899608, -29.57680781129993 2.271276258648312, -29.628230891248897 1.872449005199809 C-29.647345286941796 1.5747268634203866, -29.6664596826347 1.2770047216409641, -29.708319404652947 0.6250057626472781 C-29.708319404652947 0.343773824505167, -29.708319404652947 0.06254188636305591, -29.708319404652947 -0.6250057626472687 C-29.688030760409674 -0.9410177734350964, -29.667742116166405 -1.257029784222924, -29.6282308912489 -1.8724490051997822 C-29.58307094370046 -2.222700640545172, -29.537910996152018 -2.5729522758905627, -29.46838296532131 -3.112197953150895 C-29.381090677893905 -3.560425399859148, -29.2937983904665 -4.008652846567401, -29.229432476285094 -4.339158212148126 C-29.106430764856395 -4.808217047104704, -28.9834290534277 -5.277275882061283, -28.912361322954418 -5.548287939305123 C-28.76862909527096 -5.981186508467183, -28.624896867587502 -6.414085077629244, -28.518472418709866 -6.734618561215485 C-28.410186125127602 -7.002087799936742, -28.301899831545338 -7.269557038657998, -28.049384337547878 -7.893275190886678 C-27.866007631546278 -8.274060844531954, -27.68263092554468 -8.654846498177232, -27.507024663013038 -9.019496659696282 C-27.34664650353922 -9.304264321891702, -27.186268344065404 -9.589031984087121, -26.89362206734378 -10.108655082055243 C-26.709618346191238 -10.391334209663, -26.525614625038692 -10.674013337270756, -26.21169715338017 -11.156274872382308 C-25.944178378140865 -11.514725659741188, -25.67665960290156 -11.873176447100068, -25.46405209686612 -12.158051136245302 C-25.22355361121773 -12.4405543422394, -24.983055125569347 -12.723057548233498, -24.653759131708192 -13.109867360095668 C-24.402848657658033 -13.368953024685487, -24.151938183607875 -13.628038689275305, -23.78414792550753 -14.007812326905677 C-23.45748394940185 -14.304479906949672, -23.130819973296177 -14.601147486993664, -22.858791897241424 -14.848196188198107 C-22.48058249285001 -15.149808123625322, -22.102373088458602 -15.451420059052538, -21.881493533318253 -15.627565626425149 C-21.667379405661766 -15.776922373027116, -21.45326527800528 -15.926279119629083, -20.856268762345245 -16.342718045390885 C-20.601774501216514 -16.496993962061406, -20.347280240087784 -16.651269878731924, -19.78733045281632 -16.99071473040609 C-19.379848356221757 -17.203297879194736, -18.972366259627197 -17.41588102798338, -18.679071101531925 -17.56889292409717 C-18.31061301219211 -17.73199839032703, -17.942154922852296 -17.895103856556883, -17.53604478388734 -18.07487676824742 C-17.200963986076232 -18.19818959929485, -16.865883188265123 -18.321502430342278, -16.36294844020015 -18.506587066708033 C-16.122248542159262 -18.57802553298702, -15.881548644118373 -18.64946399926601, -15.164602574974946 -18.862249829261067 C-14.755922589817406 -18.95552836898714, -14.347242604659863 -19.048806908713214, -13.945931448416301 -19.140403561325773 C-13.514910111295492 -19.210087748491073, -13.083888774174685 -19.279771935656374, -12.711942841587414 -19.3399052695533 C-12.413427227467816 -19.368702711829865, -12.114911613348216 -19.39750015410643, -11.467707478363437 -19.45993515863156 C-11.077520621759769 -19.472447691670194, -10.687333765156101 -19.484960224708832, -10.218338188739539 -19.5 C-10.218338188739537 -19.5, -10.218338188739537 -19.5, -10.218338188739533 -19.5" stroke="none" stroke-width="0" fill="#6c757d" style="fill:#6c757d !important;stroke:#495057 !important"></path><path d="M-10.218338188739533 -19.5 C-2.572311494033549 -19.5, 5.073715200672435 -19.5, 10.218338188739533 -19.5 M-10.218338188739533 -19.5 C-6.1243384383501125 -19.5, -2.0303386879606915 -19.5, 10.218338188739533 -19.5 M10.218338188739533 -19.5 C10.218338188739533 -19.5, 10.218338188739533 -19.5, 10.218338188739532 -19.5 M10.218338188739533 -19.5 C10.218338188739533 -19.5, 10.218338188739532 -19.5, 10.218338188739532 -19.5 M10.218338188739532 -19.5 C10.479180082507689 -19.491635308164803, 10.740021976275845 -19.4832706163296, 11.467707478363433 -19.45993515863156 M10.218338188739532 -19.5 C10.647252845963854 -19.48624554177455, 11.076167503188177 -19.4724910835491, 11.467707478363433 -19.45993515863156 M11.467707478363433 -19.45993515863156 C11.786017708439287 -19.429228153560203, 12.104327938515139 -19.398521148488843, 12.711942841587398 -19.3399052695533 M11.467707478363433 -19.45993515863156 C11.955757720423103 -19.412853538746354, 12.443807962482774 -19.36577191886115, 12.711942841587398 -19.3399052695533 M12.711942841587398 -19.3399052695533 C12.976652052201862 -19.29710913723174, 13.241361262816325 -19.25431300491018, 13.94593144841629 -19.140403561325773 M12.711942841587398 -19.3399052695533 C13.11675020688675 -19.274459154059702, 13.5215575721861 -19.20901303856611, 13.94593144841629 -19.140403561325773 M13.94593144841629 -19.140403561325773 C14.205890368456346 -19.08106963421712, 14.4658492884964 -19.021735707108466, 15.164602574974923 -18.862249829261074 M13.94593144841629 -19.140403561325773 C14.26598884158755 -19.06735254990411, 14.586046234758808 -18.99430153848245, 15.164602574974923 -18.862249829261074 M15.164602574974923 -18.862249829261074 C15.618010146338879 -18.727680842065162, 16.071417717702833 -18.59311185486925, 16.362948440200135 -18.50658706670804 M15.164602574974923 -18.862249829261074 C15.452340659384571 -18.776850676176316, 15.74007874379422 -18.69145152309156, 16.362948440200135 -18.50658706670804 M16.362948440200135 -18.50658706670804 C16.781083000727513 -18.35270968324046, 17.19921756125489 -18.198832299772874, 17.536044783887327 -18.074876768247425 M16.362948440200135 -18.50658706670804 C16.694906156990275 -18.384423558345773, 17.026863873780414 -18.262260049983507, 17.536044783887327 -18.074876768247425 M17.536044783887327 -18.074876768247425 C17.89613465595786 -17.915475663568333, 18.25622452802839 -17.756074558889246, 18.679071101531918 -17.568892924097174 M17.536044783887327 -18.074876768247425 C17.791096288711906 -17.96197303289566, 18.046147793536484 -17.849069297543895, 18.679071101531918 -17.568892924097174 M18.679071101531918 -17.568892924097174 C19.05279618485314 -17.373920787510833, 19.426521268174366 -17.17894865092449, 19.787330452816317 -16.990714730406097 M18.679071101531918 -17.568892924097174 C19.11765674659121 -17.340083073997253, 19.556242391650503 -17.111273223897335, 19.787330452816317 -16.990714730406097 M19.787330452816317 -16.990714730406097 C20.10765674629588 -16.796531048852536, 20.427983039775444 -16.602347367298975, 20.85626876234523 -16.342718045390892 M19.787330452816317 -16.990714730406097 C20.160889324949412 -16.76426114684341, 20.534448197082504 -16.537807563280722, 20.85626876234523 -16.342718045390892 M20.85626876234523 -16.342718045390892 C21.14024491766602 -16.14462857256874, 21.424221072986814 -15.946539099746593, 21.881493533318245 -15.627565626425154 M20.85626876234523 -16.342718045390892 C21.167855867004928 -16.125368369568655, 21.479442971664625 -15.908018693746417, 21.881493533318245 -15.627565626425154 M21.881493533318245 -15.627565626425154 C22.103438969782186 -15.45057004706127, 22.32538440624613 -15.273574467697387, 22.858791897241403 -14.848196188198123 M21.881493533318245 -15.627565626425154 C22.101356214436436 -15.45223098902506, 22.321218895554626 -15.276896351624965, 22.858791897241403 -14.848196188198123 M22.858791897241403 -14.848196188198123 C23.07032906148949 -14.656083732594675, 23.28186622573757 -14.463971276991227, 23.78414792550752 -14.007812326905688 M22.858791897241403 -14.848196188198123 C23.183518708294915 -14.553287890199929, 23.508245519348424 -14.258379592201734, 23.78414792550752 -14.007812326905688 M23.78414792550752 -14.007812326905688 C24.00078529276907 -13.784116458949507, 24.217422660030618 -13.560420590993324, 24.653759131708185 -13.10986736009568 M23.78414792550752 -14.007812326905688 C24.00203048282616 -13.782830697983554, 24.2199130401448 -13.557849069061422, 24.653759131708185 -13.10986736009568 M24.653759131708185 -13.10986736009568 C24.9605335700274 -12.749512648885883, 25.267308008346614 -12.389157937676085, 25.464052096866112 -12.158051136245305 M24.653759131708185 -13.10986736009568 C24.88587984952262 -12.837205156907833, 25.118000567337056 -12.564542953719986, 25.464052096866112 -12.158051136245305 M25.464052096866112 -12.158051136245305 C25.741308139231194 -11.786553298021174, 26.018564181596272 -11.415055459797042, 26.211697153380168 -11.156274872382312 M25.464052096866112 -12.158051136245305 C25.683264521811285 -11.864326457481523, 25.902476946756458 -11.570601778717739, 26.211697153380168 -11.156274872382312 M26.211697153380168 -11.156274872382312 C26.37089036478871 -10.911711350296056, 26.53008357619725 -10.6671478282098, 26.89362206734378 -10.108655082055241 M26.211697153380168 -11.156274872382312 C26.46863906744529 -10.761543093813644, 26.72558098151042 -10.366811315244977, 26.89362206734378 -10.108655082055241 M26.89362206734378 -10.108655082055241 C27.09577243422968 -9.749716635704994, 27.297922801115583 -9.390778189354746, 27.507024663013034 -9.019496659696287 M26.89362206734378 -10.108655082055241 C27.11715061467033 -9.711757511557112, 27.34067916199688 -9.31485994105898, 27.507024663013034 -9.019496659696287 M27.507024663013034 -9.019496659696287 C27.626600991224482 -8.77119385564166, 27.74617731943593 -8.522891051587035, 28.049384337547874 -7.893275190886684 M27.507024663013034 -9.019496659696287 C27.697997990120353 -8.622936459783334, 27.888971317227668 -8.226376259870383, 28.049384337547874 -7.893275190886684 M28.049384337547874 -7.893275190886684 C28.176566337778173 -7.5791331914211515, 28.30374833800847 -7.264991191955618, 28.51847241870986 -6.734618561215508 M28.049384337547874 -7.893275190886684 C28.223916413527963 -7.462177588867734, 28.398448489508052 -7.031079986848782, 28.51847241870986 -6.734618561215508 M28.51847241870986 -6.734618561215508 C28.63053508168799 -6.397103675085991, 28.742597744666124 -6.059588788956474, 28.912361322954414 -5.548287939305138 M28.51847241870986 -6.734618561215508 C28.66219810080756 -6.301739706314841, 28.805923782905268 -5.868860851414174, 28.912361322954414 -5.548287939305138 M28.912361322954414 -5.548287939305138 C28.977343303633095 -5.300483483608749, 29.042325284311776 -5.052679027912361, 29.229432476285094 -4.339158212148133 M28.912361322954414 -5.548287939305138 C28.989792872341802 -5.253007882445247, 29.067224421729186 -4.957727825585357, 29.229432476285094 -4.339158212148133 M29.229432476285094 -4.339158212148133 C29.318058216627836 -3.884083766545009, 29.40668395697058 -3.429009320941885, 29.46838296532131 -3.1121979531509023 M29.229432476285094 -4.339158212148133 C29.309133532583576 -3.9299101328796366, 29.38883458888206 -3.5206620536111397, 29.46838296532131 -3.1121979531509023 M29.46838296532131 -3.1121979531509023 C29.509608744926375 -2.7924589474850117, 29.55083452453144 -2.472719941819121, 29.6282308912489 -1.872449005199798 M29.46838296532131 -3.1121979531509023 C29.513452998551788 -2.762643675500048, 29.558523031782265 -2.4130893978491934, 29.6282308912489 -1.872449005199798 M29.6282308912489 -1.872449005199798 C29.657834149399807 -1.4113543641795174, 29.687437407550714 -0.950259723159237, 29.708319404652947 -0.6250057626472757 M29.6282308912489 -1.872449005199798 C29.64627415329506 -1.5914106345718466, 29.664317415341223 -1.3103722639438953, 29.708319404652947 -0.6250057626472757 M29.708319404652947 -0.6250057626472757 C29.708319404652947 -0.2921161723177118, 29.708319404652947 0.04077341801185208, 29.708319404652947 0.625005762647271 M29.708319404652947 -0.6250057626472757 C29.708319404652947 -0.2333199400994987, 29.708319404652947 0.15836588244827832, 29.708319404652947 0.625005762647271 M29.708319404652947 0.625005762647271 C29.689455560088994 0.9188253683521057, 29.670591715525042 1.2126449740569405, 29.6282308912489 1.8724490051997846 M29.708319404652947 0.625005762647271 C29.691828364785763 0.8818670199064638, 29.67533732491858 1.1387282771656566, 29.6282308912489 1.8724490051997846 M29.6282308912489 1.8724490051997846 C29.594155507809432 2.1367309502107465, 29.560080124369964 2.401012895221708, 29.46838296532131 3.1121979531508885 M29.6282308912489 1.8724490051997846 C29.59176866250788 2.1552428510336465, 29.555306433766866 2.4380366968675085, 29.46838296532131 3.1121979531508885 M29.46838296532131 3.1121979531508885 C29.383946588487543 3.5457609025577326, 29.29951021165377 3.979323851964576, 29.229432476285094 4.339158212148129 M29.46838296532131 3.1121979531508885 C29.39644996921013 3.481558685137686, 29.32451697309895 3.850919417124483, 29.229432476285094 4.339158212148129 M29.229432476285094 4.339158212148129 C29.148087007478615 4.649363740056429, 29.066741538672137 4.959569267964728, 28.912361322954418 5.548287939305125 M29.229432476285094 4.339158212148129 C29.11616287203087 4.7711043045265, 29.00289326777665 5.203050396904872, 28.912361322954418 5.548287939305125 M28.912361322954418 5.548287939305125 C28.77769208081036 5.953890240013153, 28.643022838666308 6.35949254072118, 28.518472418709862 6.734618561215495 M28.912361322954418 5.548287939305125 C28.757834293044883 6.013698732853962, 28.60330726313535 6.479109526402799, 28.518472418709862 6.734618561215495 M28.518472418709862 6.734618561215495 C28.412571308500233 6.996196350891955, 28.306670198290607 7.257774140568416, 28.049384337547878 7.893275190886679 M28.518472418709862 6.734618561215495 C28.33359668172022 7.191265205909128, 28.148720944730577 7.647911850602762, 28.049384337547878 7.893275190886679 M28.049384337547878 7.893275190886679 C27.89629179685489 8.211175127291288, 27.743199256161905 8.529075063695895, 27.507024663013038 9.019496659696284 M28.049384337547878 7.893275190886679 C27.879500175149232 8.24604328904624, 27.709616012750583 8.5988113872058, 27.507024663013038 9.019496659696284 M27.507024663013038 9.019496659696284 C27.28434716589768 9.41488310436626, 27.061669668782326 9.810269549036235, 26.893622067343784 10.108655082055236 M27.507024663013038 9.019496659696284 C27.31101699810557 9.367528116667803, 27.1150093331981 9.715559573639323, 26.893622067343784 10.108655082055236 M26.893622067343784 10.108655082055236 C26.696656638443013 10.41124687347015, 26.499691209542238 10.713838664885062, 26.21169715338018 11.156274872382301 M26.893622067343784 10.108655082055236 C26.72422708341367 10.36889126629413, 26.55483209948355 10.629127450533023, 26.21169715338018 11.156274872382301 M26.21169715338018 11.156274872382301 C26.004837512717835 11.433447945568894, 25.79797787205549 11.710621018755486, 25.46405209686612 12.158051136245302 M26.21169715338018 11.156274872382301 C26.017464601736048 11.416528796635966, 25.823232050091914 11.676782720889628, 25.46405209686612 12.158051136245302 M25.46405209686612 12.158051136245302 C25.218886784178917 12.446036262829177, 24.97372147149171 12.734021389413051, 24.653759131708192 13.10986736009567 M25.46405209686612 12.158051136245302 C25.232431619398167 12.430125728657687, 25.000811141930214 12.702200321070073, 24.653759131708192 13.10986736009567 M24.653759131708192 13.10986736009567 C24.433970579592824 13.336817085130509, 24.214182027477452 13.563766810165347, 23.784147925507522 14.007812326905684 M24.653759131708192 13.10986736009567 C24.329433140654118 13.444760573518073, 24.005107149600047 13.779653786940477, 23.784147925507522 14.007812326905684 M23.784147925507522 14.007812326905684 C23.53677287750391 14.23247180031746, 23.289397829500295 14.457131273729239, 22.85879189724142 14.848196188198111 M23.784147925507522 14.007812326905684 C23.454593696575706 14.307104758094477, 23.12503946764389 14.606397189283271, 22.85879189724142 14.848196188198111 M22.85879189724142 14.848196188198111 C22.46918980527114 15.158893488797325, 22.07958771330086 15.46959078939654, 21.88149353331825 15.627565626425152 M22.85879189724142 14.848196188198111 C22.545633467852973 15.097931702139608, 22.232475038464525 15.347667216081105, 21.88149353331825 15.627565626425152 M21.88149353331825 15.627565626425152 C21.4834438133609 15.905227879772742, 21.085394093403554 16.18289013312033, 20.85626876234524 16.34271804539089 M21.88149353331825 15.627565626425152 C21.591696050108347 15.829715805581525, 21.30189856689844 16.031865984737898, 20.85626876234524 16.34271804539089 M20.85626876234524 16.34271804539089 C20.59942340063317 16.49841921305163, 20.3425780389211 16.65412038071237, 19.78733045281632 16.990714730406093 M20.85626876234524 16.34271804539089 C20.493059274342688 16.56289777147391, 20.129849786340134 16.783077497556928, 19.78733045281632 16.990714730406093 M19.78733045281632 16.990714730406093 C19.539175051841337 17.12017724414362, 19.291019650866357 17.24963975788115, 18.679071101531918 17.56889292409717 M19.78733045281632 16.990714730406093 C19.374022677409368 17.206337132099634, 18.96071490200242 17.421959533793174, 18.679071101531918 17.56889292409717 M18.679071101531918 17.56889292409717 C18.340085418971487 17.718951830113678, 18.001099736411057 17.869010736130186, 17.536044783887338 18.07487676824742 M18.679071101531918 17.56889292409717 C18.357692621030623 17.711157644061192, 18.036314140529328 17.85342236402521, 17.536044783887338 18.07487676824742 M17.536044783887338 18.07487676824742 C17.15649319062784 18.21455526310338, 16.776941597368346 18.354233757959342, 16.36294844020015 18.506587066708033 M17.536044783887338 18.07487676824742 C17.173254282357032 18.208387026409206, 16.810463780826726 18.341897284570994, 16.36294844020015 18.506587066708033 M16.36294844020015 18.506587066708033 C16.043137169446297 18.60150537314416, 15.723325898692442 18.69642367958029, 15.164602574974946 18.86224982926107 M16.36294844020015 18.506587066708033 C15.968416356374458 18.623682118246332, 15.573884272548767 18.74077716978463, 15.164602574974946 18.86224982926107 M15.164602574974946 18.86224982926107 C14.906204917085166 18.92122740847211, 14.647807259195385 18.980204987683152, 13.9459314484163 19.140403561325773 M15.164602574974946 18.86224982926107 C14.855282218183941 18.93285018219465, 14.545961861392938 19.00345053512823, 13.9459314484163 19.140403561325773 M13.9459314484163 19.140403561325773 C13.56627736363504 19.20178308949181, 13.18662327885378 19.26316261765784, 12.711942841587412 19.3399052695533 M13.9459314484163 19.140403561325773 C13.560930421555117 19.202647541621133, 13.175929394693934 19.264891521916496, 12.711942841587412 19.3399052695533 M12.711942841587412 19.3399052695533 C12.386791522193594 19.371272226283548, 12.061640202799776 19.402639183013793, 11.467707478363433 19.45993515863156 M12.711942841587412 19.3399052695533 C12.294910359712231 19.38013589152486, 11.87787787783705 19.42036651349642, 11.467707478363433 19.45993515863156 M11.467707478363433 19.45993515863156 C11.111658928768435 19.47135294261061, 10.755610379173438 19.482770726589663, 10.218338188739537 19.5 M11.467707478363433 19.45993515863156 C10.989936912354569 19.47525633075947, 10.512166346345706 19.490577502887383, 10.218338188739537 19.5 M10.218338188739537 19.5 C10.218338188739535 19.5, 10.218338188739535 19.5, 10.218338188739533 19.5 M10.218338188739537 19.5 C10.218338188739535 19.5, 10.218338188739535 19.5, 10.218338188739533 19.5 M10.218338188739533 19.5 C4.631869455672972 19.5, -0.954599277393589 19.5, -10.21833818873953 19.5 M10.218338188739533 19.5 C2.1807531230014483 19.5, -5.856831942736637 19.5, -10.21833818873953 19.5 M-10.21833818873953 19.5 C-10.558088876222715 19.48910485673701, -10.897839563705903 19.47820971347402, -11.467707478363426 19.45993515863156 M-10.21833818873953 19.5 C-10.474192776067758 19.491795241375126, -10.730047363395988 19.483590482750255, -11.467707478363426 19.45993515863156 M-11.467707478363426 19.45993515863156 C-11.834796843343755 19.42452248908146, -12.201886208324082 19.389109819531363, -12.711942841587405 19.3399052695533 M-11.467707478363426 19.45993515863156 C-11.95232205641035 19.413184973121673, -12.436936634457275 19.366434787611787, -12.711942841587405 19.3399052695533 M-12.711942841587405 19.3399052695533 C-13.102420208568025 19.27677591705708, -13.492897575548644 19.213646564560857, -13.945931448416292 19.140403561325773 M-12.711942841587405 19.3399052695533 C-13.093976251823305 19.278141070499704, -13.476009662059205 19.216376871446105, -13.945931448416292 19.140403561325773 M-13.945931448416292 19.140403561325773 C-14.423907906915169 19.031308553761292, -14.901884365414045 18.922213546196808, -15.164602574974921 18.862249829261074 M-13.945931448416292 19.140403561325773 C-14.40188479404352 19.036335185560002, -14.857838139670747 18.932266809794232, -15.164602574974921 18.862249829261074 M-15.164602574974921 18.862249829261074 C-15.609236896947694 18.73028469643274, -16.053871218920467 18.598319563604406, -16.362948440200128 18.506587066708043 M-15.164602574974921 18.862249829261074 C-15.621788086227403 18.72655956933706, -16.078973597479884 18.590869309413044, -16.362948440200128 18.506587066708043 M-16.362948440200128 18.506587066708043 C-16.825997552319073 18.3361807130692, -17.289046664438015 18.16577435943036, -17.53604478388733 18.074876768247425 M-16.362948440200128 18.506587066708043 C-16.808469599503567 18.342631161731926, -17.25399075880701 18.17867525675581, -17.53604478388733 18.074876768247425 M-17.53604478388733 18.074876768247425 C-17.976280889657662 17.879997303362984, -18.416516995427994 17.685117838478543, -18.679071101531914 17.568892924097174 M-17.53604478388733 18.074876768247425 C-17.801213460296434 17.95749446115042, -18.06638213670554 17.84011215405342, -18.679071101531914 17.568892924097174 M-18.679071101531914 17.568892924097174 C-18.972561171198752 17.415779342741345, -19.266051240865586 17.26266576138552, -19.787330452816313 16.990714730406097 M-18.679071101531914 17.568892924097174 C-18.959243496608828 17.422727165044535, -19.239415891685738 17.27656140599189, -19.787330452816313 16.990714730406097 M-19.787330452816313 16.990714730406097 C-20.1479782534046 16.772087914287752, -20.508626053992884 16.553461098169407, -20.85626876234522 16.3427180453909 M-19.787330452816313 16.990714730406097 C-20.07407045364653 16.816891256831536, -20.360810454476745 16.64306778325697, -20.85626876234522 16.3427180453909 M-20.85626876234522 16.3427180453909 C-21.13725431849058 16.146714685092576, -21.418239874635944 15.950711324794256, -21.881493533318242 15.627565626425156 M-20.85626876234522 16.3427180453909 C-21.196069808121162 16.105687545607793, -21.53587085389711 15.868657045824687, -21.881493533318242 15.627565626425156 M-21.881493533318242 15.627565626425156 C-22.151305739835784 15.412397571731772, -22.421117946353327 15.197229517038389, -22.858791897241403 14.848196188198125 M-21.881493533318242 15.627565626425156 C-22.13603366559252 15.424576644533811, -22.3905737978668 15.221587662642467, -22.858791897241403 14.848196188198125 M-22.858791897241403 14.848196188198125 C-23.115191455808013 14.615340893068499, -23.371591014374623 14.382485597938874, -23.78414792550751 14.007812326905695 M-22.858791897241403 14.848196188198125 C-23.14277073118953 14.590294124874646, -23.42674956513766 14.332392061551166, -23.78414792550751 14.007812326905695 M-23.78414792550751 14.007812326905695 C-24.02269991332849 13.761487813998093, -24.26125190114947 13.515163301090492, -24.65375913170819 13.109867360095677 M-23.78414792550751 14.007812326905695 C-23.99471865187016 13.790380763758114, -24.205289378232802 13.57294920061053, -24.65375913170819 13.109867360095677 M-24.65375913170819 13.109867360095677 C-24.933899077536907 12.780799039310773, -25.214039023365626 12.451730718525871, -25.464052096866112 12.158051136245307 M-24.65375913170819 13.109867360095677 C-24.90961551080858 12.809323898563957, -25.16547188990897 12.508780437032238, -25.464052096866112 12.158051136245307 M-25.464052096866112 12.158051136245307 C-25.710768476870022 11.82747366336467, -25.957484856873933 11.49689619048403, -26.211697153380168 11.156274872382316 M-25.464052096866112 12.158051136245307 C-25.6518093589578 11.906473510080907, -25.839566621049485 11.654895883916508, -26.211697153380168 11.156274872382316 M-26.211697153380168 11.156274872382316 C-26.4492985641886 10.791255300468235, -26.68689997499703 10.426235728554156, -26.893622067343777 10.108655082055252 M-26.211697153380168 11.156274872382316 C-26.472657943961657 10.755369020265066, -26.733618734543143 10.354463168147817, -26.893622067343777 10.108655082055252 M-26.893622067343777 10.108655082055252 C-27.08287863930438 9.772610874233187, -27.272135211264978 9.436566666411125, -27.507024663013034 9.019496659696289 M-26.893622067343777 10.108655082055252 C-27.038510532279478 9.851390941013914, -27.18339899721518 9.594126799972575, -27.507024663013034 9.019496659696289 M-27.507024663013034 9.019496659696289 C-27.62085648316656 8.783122449536718, -27.734688303320087 8.546748239377147, -28.049384337547874 7.893275190886686 M-27.507024663013034 9.019496659696289 C-27.638807806933638 8.745846141637585, -27.77059095085424 8.472195623578884, -28.049384337547874 7.893275190886686 M-28.049384337547874 7.893275190886686 C-28.210048446472054 7.496431735614728, -28.37071255539624 7.099588280342768, -28.51847241870986 6.73461856121551 M-28.049384337547874 7.893275190886686 C-28.15131078449732 7.641514896307761, -28.253237231446768 7.389754601728837, -28.51847241870986 6.73461856121551 M-28.51847241870986 6.73461856121551 C-28.655619373940215 6.321553783461516, -28.79276632917057 5.908489005707521, -28.912361322954414 5.5482879393051325 M-28.51847241870986 6.73461856121551 C-28.662944341533485 6.299492148145678, -28.807416264357112 5.864365735075845, -28.912361322954414 5.5482879393051325 M-28.912361322954414 5.5482879393051325 C-28.998549810489312 5.219613882007785, -29.084738298024206 4.890939824710436, -29.22943247628509 4.339158212148136 M-28.912361322954414 5.5482879393051325 C-29.02611872288537 5.1144816705993845, -29.139876122816332 4.680675401893636, -29.22943247628509 4.339158212148136 M-29.22943247628509 4.339158212148136 C-29.281039309079546 4.074168032856577, -29.332646141874005 3.8091778535650187, -29.46838296532131 3.112197953150904 M-29.22943247628509 4.339158212148136 C-29.322797424646435 3.8597489350014573, -29.416162373007783 3.380339657854779, -29.46838296532131 3.112197953150904 M-29.46838296532131 3.112197953150904 C-29.530528226935854 2.630211576038472, -29.592673488550396 2.1482251989260406, -29.628230891248897 1.872449005199809 M-29.46838296532131 3.112197953150904 C-29.506365916886182 2.817609681395912, -29.544348868451056 2.5230214096409203, -29.628230891248897 1.872449005199809 M-29.628230891248897 1.872449005199809 C-29.65493239269047 1.4565515671833187, -29.681633894132037 1.0406541291668283, -29.708319404652947 0.6250057626472781 M-29.628230891248897 1.872449005199809 C-29.651542359833815 1.5093540653109567, -29.674853828418733 1.1462591254221046, -29.708319404652947 0.6250057626472781 M-29.708319404652947 0.6250057626472781 C-29.708319404652947 0.1262039072772601, -29.708319404652947 -0.3725979480927579, -29.708319404652947 -0.6250057626472687 M-29.708319404652947 0.6250057626472781 C-29.708319404652947 0.3557011298644266, -29.708319404652947 0.08639649708157504, -29.708319404652947 -0.6250057626472687 M-29.708319404652947 -0.6250057626472687 C-29.690937004806525 -0.8957506710759437, -29.6735546049601 -1.1664955795046188, -29.6282308912489 -1.8724490051997822 M-29.708319404652947 -0.6250057626472687 C-29.690883573025523 -0.8965829141943918, -29.673447741398096 -1.168160065741515, -29.6282308912489 -1.8724490051997822 M-29.6282308912489 -1.8724490051997822 C-29.592206360248962 -2.1518481537870358, -29.556181829249024 -2.431247302374289, -29.46838296532131 -3.112197953150895 M-29.6282308912489 -1.8724490051997822 C-29.58702158078546 -2.1920602794554434, -29.54581227032202 -2.5116715537111043, -29.46838296532131 -3.112197953150895 M-29.46838296532131 -3.112197953150895 C-29.407520102215855 -3.424715891826736, -29.3466572391104 -3.7372338305025763, -29.229432476285094 -4.339158212148126 M-29.46838296532131 -3.112197953150895 C-29.37875956144542 -3.5723951901404782, -29.28913615756953 -4.032592427130061, -29.229432476285094 -4.339158212148126 M-29.229432476285094 -4.339158212148126 C-29.142273144637688 -4.6715345188129795, -29.055113812990278 -5.003910825477832, -28.912361322954418 -5.548287939305123 M-29.229432476285094 -4.339158212148126 C-29.130122853143046 -4.717868846251695, -29.030813230000994 -5.096579480355264, -28.912361322954418 -5.548287939305123 M-28.912361322954418 -5.548287939305123 C-28.786408245131643 -5.927638541809643, -28.660455167308868 -6.306989144314164, -28.518472418709866 -6.734618561215485 M-28.912361322954418 -5.548287939305123 C-28.804456879556746 -5.873278930580605, -28.696552436159077 -6.198269921856086, -28.518472418709866 -6.734618561215485 M-28.518472418709866 -6.734618561215485 C-28.344792277265075 -7.163611868461221, -28.171112135820284 -7.5926051757069555, -28.049384337547878 -7.893275190886678 M-28.518472418709866 -6.734618561215485 C-28.35720002245105 -7.1329644979644335, -28.19592762619223 -7.531310434713381, -28.049384337547878 -7.893275190886678 M-28.049384337547878 -7.893275190886678 C-27.897406387193136 -8.208860656605506, -27.745428436838395 -8.524446122324335, -27.507024663013038 -9.019496659696282 M-28.049384337547878 -7.893275190886678 C-27.92930999355623 -8.142612135364722, -27.80923564956458 -8.391949079842766, -27.507024663013038 -9.019496659696282 M-27.507024663013038 -9.019496659696282 C-27.326414478985377 -9.340188330201691, -27.145804294957717 -9.6608800007071, -26.89362206734378 -10.108655082055243 M-27.507024663013038 -9.019496659696282 C-27.360172879516558 -9.28024687164985, -27.213321096020074 -9.540997083603418, -26.89362206734378 -10.108655082055243 M-26.89362206734378 -10.108655082055243 C-26.655160849285476 -10.474995548795707, -26.416699631227168 -10.841336015536172, -26.21169715338017 -11.156274872382308 M-26.89362206734378 -10.108655082055243 C-26.723590240881766 -10.369869627439298, -26.553558414419747 -10.631084172823355, -26.21169715338017 -11.156274872382308 M-26.21169715338017 -11.156274872382308 C-25.954683423324404 -11.500649856224548, -25.69766969326864 -11.84502484006679, -25.46405209686612 -12.158051136245302 M-26.21169715338017 -11.156274872382308 C-26.02840376352774 -11.401871316413233, -25.84511037367531 -11.647467760444158, -25.46405209686612 -12.158051136245302 M-25.46405209686612 -12.158051136245302 C-25.232899906580556 -12.429575651886957, -25.001747716294993 -12.701100167528612, -24.653759131708192 -13.109867360095668 M-25.46405209686612 -12.158051136245302 C-25.146267735642002 -12.531338729381552, -24.82848337441789 -12.904626322517805, -24.653759131708192 -13.109867360095668 M-24.653759131708192 -13.109867360095668 C-24.43320493219067 -13.337607678934052, -24.212650732673143 -13.565347997772438, -23.78414792550753 -14.007812326905677 M-24.653759131708192 -13.109867360095668 C-24.380607054584804 -13.39191930592817, -24.107454977461416 -13.673971251760673, -23.78414792550753 -14.007812326905677 M-23.78414792550753 -14.007812326905677 C-23.537631723188056 -14.23169181939093, -23.291115520868583 -14.455571311876184, -22.858791897241424 -14.848196188198107 M-23.78414792550753 -14.007812326905677 C-23.574214324462762 -14.19846846883583, -23.364280723417995 -14.389124610765986, -22.858791897241424 -14.848196188198107 M-22.858791897241424 -14.848196188198107 C-22.470811769028714 -15.157600015862927, -22.082831640816003 -15.467003843527747, -21.881493533318253 -15.627565626425149 M-22.858791897241424 -14.848196188198107 C-22.566550356627165 -15.081251039963977, -22.2743088160129 -15.314305891729846, -21.881493533318253 -15.627565626425149 M-21.881493533318253 -15.627565626425149 C-21.580580829975673 -15.837469301975952, -21.27966812663309 -16.047372977526756, -20.856268762345245 -16.342718045390885 M-21.881493533318253 -15.627565626425149 C-21.656160885363516 -15.78474792714526, -21.430828237408775 -15.94193022786537, -20.856268762345245 -16.342718045390885 M-20.856268762345245 -16.342718045390885 C-20.45418685954808 -16.586462457762064, -20.052104956750917 -16.83020687013324, -19.78733045281632 -16.99071473040609 M-20.856268762345245 -16.342718045390885 C-20.452656069290114 -16.587390431812363, -20.049043376234987 -16.83206281823384, -19.78733045281632 -16.99071473040609 M-19.78733045281632 -16.99071473040609 C-19.49435977000607 -17.14355734797152, -19.201389087195825 -17.29639996553695, -18.679071101531925 -17.56889292409717 M-19.78733045281632 -16.99071473040609 C-19.424189436673757 -17.180165165924745, -19.061048420531197 -17.3696156014434, -18.679071101531925 -17.56889292409717 M-18.679071101531925 -17.56889292409717 C-18.268234539750335 -17.750758082964282, -17.85739797796875 -17.93262324183139, -17.53604478388734 -18.07487676824742 M-18.679071101531925 -17.56889292409717 C-18.425098634915077 -17.681319001242905, -18.171126168298226 -17.79374507838864, -17.53604478388734 -18.07487676824742 M-17.53604478388734 -18.07487676824742 C-17.116033673996576 -18.22944473922736, -16.696022564105807 -18.3840127102073, -16.36294844020015 -18.506587066708033 M-17.53604478388734 -18.07487676824742 C-17.147483506255906 -18.217870910236865, -16.75892222862447 -18.36086505222631, -16.36294844020015 -18.506587066708033 M-16.36294844020015 -18.506587066708033 C-15.904377738893665 -18.642688443769067, -15.44580703758718 -18.778789820830102, -15.164602574974946 -18.862249829261067 M-16.36294844020015 -18.506587066708033 C-15.9508819659436 -18.628886233286316, -15.538815491687052 -18.751185399864596, -15.164602574974946 -18.862249829261067 M-15.164602574974946 -18.862249829261067 C-14.80547440395417 -18.94421849076623, -14.446346232933394 -19.026187152271394, -13.945931448416301 -19.140403561325773 M-15.164602574974946 -18.862249829261067 C-14.847383598258858 -18.934652990649237, -14.530164621542768 -19.007056152037404, -13.945931448416301 -19.140403561325773 M-13.945931448416301 -19.140403561325773 C-13.600582381725363 -19.196236920206353, -13.255233315034427 -19.252070279086933, -12.711942841587414 -19.3399052695533 M-13.945931448416301 -19.140403561325773 C-13.607573015132639 -19.195106728810234, -13.269214581848976 -19.2498098962947, -12.711942841587414 -19.3399052695533 M-12.711942841587414 -19.3399052695533 C-12.375618379984155 -19.37235008587482, -12.039293918380897 -19.404794902196343, -11.467707478363437 -19.45993515863156 M-12.711942841587414 -19.3399052695533 C-12.447182140006785 -19.36544641601345, -12.182421438426156 -19.390987562473605, -11.467707478363437 -19.45993515863156 M-11.467707478363437 -19.45993515863156 C-11.12974469667725 -19.470772967235586, -10.791781914991061 -19.481610775839616, -10.218338188739539 -19.5 M-11.467707478363437 -19.45993515863156 C-11.111089905545578 -19.471371190077832, -10.754472332727719 -19.482807221524105, -10.218338188739539 -19.5 M-10.218338188739539 -19.5 C-10.218338188739537 -19.5, -10.218338188739535 -19.5, -10.218338188739533 -19.5 M-10.218338188739539 -19.5 C-10.218338188739537 -19.5, -10.218338188739535 -19.5, -10.218338188739533 -19.5" stroke="#495057" stroke-width="1.3" fill="none" stroke-dasharray="0 0" style="fill:#6c757d !important;stroke:#495057 !important"></path></g><g class="label" style="color:#fff !important" transform="translate(-17.343338188739533, -12)"><rect></rect><foreignObject width="34.68667637747907" height="24"><div style="color: rgb(255, 255, 255) !important; display: table-cell; white-space: nowrap; line-height: 1.5; max-width: 200px; text-align: center;" xmlns="http://www.w3.org/1999/xhtml"><span style="color:#fff !important" class="nodeLabel "><p>main</p></span></div></foreignObject></g></g><g class="node default  " id="flowchart-B-1" transform="translate(274.0900195781627, 161)"><rect class="basic label-container" style="fill:#6c757d !important;stroke:#495057 !important" x="-95.81833666286063" y="-39" width="191.63667332572126" height="78"></rect><g class="label" style="color:#fff !important" transform="translate(-65.81833666286063, -24)"><rect></rect><foreignObject width="131.63667332572126" height="48"><div style="color: rgb(255, 255, 255) !important; display: table-cell; white-space: nowrap; line-height: 1.5; max-width: 200px; text-align: center;" xmlns="http://www.w3.org/1999/xhtml"><span style="color:#fff !important" class="nodeLabel "><p><strong>init</strong>: DetectorNode<br/>Set Pubs &amp; Subs</p></span></div></foreignObject></g></g><g class="node default  " id="flowchart-C-2" transform="translate(274.0900195781627, 293.5)"><polygon points="-19.5,0 206.2366794292369,0 225.7366794292369,-39 0,-39" class="label-container" transform="translate(-103.11833971461844,19.5)" style="fill:#f8f9fa !important;stroke:#ced4da !important"></polygon><g class="label" style="color:#000 !important" transform="translate(-95.61833971461844, -12)"><rect></rect><foreignObject width="191.2366794292369" height="24"><div style="color: rgb(0, 0, 0) !important; display: table-cell; white-space: nowrap; line-height: 1.5; max-width: 200px; text-align: center;" xmlns="http://www.w3.org/1999/xhtml"><span style="color:#000 !important" class="nodeLabel "><p>Topic: /camera/image_raw/</p></span></div></foreignObject></g></g><g class="node default  " id="flowchart-D-3" transform="translate(274.0900195781627, 402)"><rect class="basic label-container" style="fill:#28a745 !important;stroke:#1e7e34 !important" x="-85.14334124049734" y="-39" width="170.28668248099467" height="78"></rect><g class="label" style="color:#fff !important" transform="translate(-55.14334124049734, -24)"><rect></rect><foreignObject width="110.28668248099468" height="48"><div style="color: rgb(255, 255, 255) !important; display: table-cell; white-space: nowrap; line-height: 1.5; max-width: 200px; text-align: center;" xmlns="http://www.w3.org/1999/xhtml"><span style="color:#fff !important" class="nodeLabel "><p>image_callback<br/>Receive Frame</p></span></div></foreignObject></g></g><g class="node default  " id="flowchart-E-10" transform="translate(274.0900195781627, 580)"><rect class="basic label-container" style="fill:#007bff !important;stroke:#0056b3 !important" x="-113.14334124049735" y="-39" width="226.2866824809947" height="78"></rect><g class="label" style="color:#fff !important" transform="translate(-83.14334124049735, -24)"><rect></rect><foreignObject width="166.2866824809947" height="48"><div style="color: rgb(255, 255, 255) !important; display: table-cell; white-space: nowrap; line-height: 1.5; max-width: 200px; text-align: center;" xmlns="http://www.w3.org/1999/xhtml"><span style="color:#fff !important" class="nodeLabel "><p>YOLO/SSD Algoritması<br/>Çalıştır</p></span></div></foreignObject></g></g><g class="node default  " id="flowchart-F-11" transform="translate(274.0900195781627, 755.1541187702283)"><polygon points="86.15167253932546,0 172.30334507865092,-86.15167253932546 86.15167253932546,-172.30334507865092 0,-86.15167253932546" class="label-container" transform="translate(-85.65167253932546, 86.15167253932546)" style="fill:#ffc107 !important;stroke:#d39e00 !important"></polygon><g class="label" style="color:#000 !important" transform="translate(-47.15167253932547, -24)"><rect></rect><foreignObject width="94.30334507865093" height="48"><div style="color: rgb(0, 0, 0) !important; display: table-cell; white-space: nowrap; line-height: 1.5; max-width: 200px; text-align: center;" xmlns="http://www.w3.org/1999/xhtml"><span style="color:#000 !important" class="nodeLabel "><p>Hedef<br/>Bulundu mu?</p></span></div></foreignObject></g></g><g class="node default  " id="flowchart-G-12" transform="translate(150.15334337672778, 954.3082375404565)"><rect class="basic label-container" style="fill:#007bff !important;stroke:#0056b3 !important" x="-101.1600038381536" y="-39" width="202.3200076763072" height="78"></rect><g class="label" style="color:#fff !important" transform="translate(-71.1600038381536, -24)"><rect></rect><foreignObject width="142.3200076763072" height="48"><div style="color: rgb(255, 255, 255) !important; display: table-cell; white-space: nowrap; line-height: 1.5; max-width: 200px; text-align: center;" xmlns="http://www.w3.org/1999/xhtml"><span style="color:#fff !important" class="nodeLabel "><p>Return: Do nothing<br/>Sonraki frame bekle</p></span></div></foreignObject></g></g><g class="node default  " id="flowchart-H-13" transform="translate(398.0266957795975, 954.3082375404565)"><rect class="basic label-container" style="fill:#007bff !important;stroke:#0056b3 !important" x="-96.71000688991141" y="-39" width="193.42001377982282" height="78"></rect><g class="label" style="color:#fff !important" transform="translate(-66.71000688991141, -24)"><rect></rect><foreignObject width="133.42001377982282" height="48"><div style="color: rgb(255, 255, 255) !important; display: table-cell; white-space: nowrap; line-height: 1.5; max-width: 200px; text-align: center;" xmlns="http://www.w3.org/1999/xhtml"><span style="color:#fff !important" class="nodeLabel "><p>Bounding Box<br/>Koordinatları Çıkar</p></span></div></foreignObject></g></g><g class="node default  " id="flowchart-I-22" transform="translate(398.0266957795975, 1132.3082375404565)"><rect class="basic label-container" style="fill:#007bff !important;stroke:#0056b3 !important" x="-84.26834124049734" y="-39" width="168.53668248099467" height="78"></rect><g class="label" style="color:#fff !important" transform="translate(-54.26834124049734, -24)"><rect></rect><foreignObject width="108.53668248099468" height="48"><div style="color: rgb(255, 255, 255) !important; display: table-cell; white-space: nowrap; line-height: 1.5; max-width: 200px; text-align: center;" xmlns="http://www.w3.org/1999/xhtml"><span style="color:#fff !important" class="nodeLabel "><p>Görüntüyü Kırp<br/>Crop BBox</p></span></div></foreignObject></g></g><g class="node default  " id="flowchart-J-23" transform="translate(398.0266957795975, 1300.3373563106848)"><polygon points="79.02667253932546,0 158.05334507865092,-79.02667253932546 79.02667253932546,-158.05334507865092 0,-79.02667253932546" class="label-container" transform="translate(-78.52667253932546, 79.02667253932546)" style="fill:#ffc107 !important;stroke:#d39e00 !important"></polygon><g class="label" style="color:#000 !important" transform="translate(-40.02667253932547, -24)"><rect></rect><foreignObject width="80.05334507865093" height="48"><div style="color: rgb(0, 0, 0) !important; display: table-cell; white-space: nowrap; line-height: 1.5; max-width: 200px; text-align: center;" xmlns="http://www.w3.org/1999/xhtml"><span style="color:#000 !important" class="nodeLabel "><p>Hedef Türü<br/>Nedir?</p></span></div></foreignObject></g></g><g class="node default  " id="flowchart-K-24" transform="translate(250.29835545462754, 1492.366475080913)"><rect class="basic label-container" style="fill:#007bff !important;stroke:#0056b3 !important" x="-122.06833666286063" y="-39" width="244.13667332572126" height="78"></rect><g class="label" style="color:#fff !important" transform="translate(-92.06833666286063, -24)"><rect></rect><foreignObject width="184.13667332572126" height="48"><div style="color: rgb(255, 255, 255) !important; display: table-cell; white-space: nowrap; line-height: 1.5; max-width: 200px; text-align: center;" xmlns="http://www.w3.org/1999/xhtml"><span style="color:#fff !important" class="nodeLabel "><p>Olgunluk CNN Modeli<br/>Ham / Olgunlaşan / Olgun</p></span></div></foreignObject></g></g><g class="node default  " id="flowchart-L-25" transform="translate(545.7550361045676, 1492.366475080913)"><rect class="basic label-container" style="fill:#007bff !important;stroke:#0056b3 !important" x="-123.3850023122747" y="-39" width="246.7700046245494" height="78"></rect><g class="label" style="color:#fff !important" transform="translate(-93.3850023122747, -24)"><rect></rect><foreignObject width="186.7700046245494" height="48"><div style="color: rgb(255, 255, 255) !important; display: table-cell; white-space: nowrap; line-height: 1.5; max-width: 200px; text-align: center;" xmlns="http://www.w3.org/1999/xhtml"><span style="color:#fff !important" class="nodeLabel "><p>Hastalık CNN Modeli<br/>Sağlıklı / Gri Küf / Külleme</p></span></div></foreignObject></g></g><g class="node default  " id="flowchart-M-34" transform="translate(398.0266957795975, 1670.366475080913)"><rect class="basic label-container" style="fill:#007bff !important;stroke:#0056b3 !important" x="-108.2600023122747" y="-39" width="216.5200046245494" height="78"></rect><g class="label" style="color:#fff !important" transform="translate(-78.2600023122747, -24)"><rect></rect><foreignObject width="156.5200046245494" height="48"><div style="color: rgb(255, 255, 255) !important; display: table-cell; white-space: nowrap; line-height: 1.5; max-width: 200px; text-align: center;" xmlns="http://www.w3.org/1999/xhtml"><span style="color:#fff !important" class="nodeLabel "><p>Sonuçları Birleştir<br/>Tür, Durum, Skor, X-Y</p></span></div></foreignObject></g></g><g class="node default  " id="flowchart-N-35" transform="translate(398.0266957795975, 1790.866475080913)"><polygon points="-31.5,0 169.75,0 201.25,-63 0,-63" class="label-container" transform="translate(-84.875,31.5)" style="fill:#6f42c1 !important;stroke:#542c91 !important"></polygon><g class="label" style="color:#fff !important" transform="translate(-77.375, -24)"><rect></rect><foreignObject width="154.75" height="48"><div style="color: rgb(255, 255, 255) !important; display: table-cell; white-space: nowrap; line-height: 1.5; max-width: 200px; text-align: center;" xmlns="http://www.w3.org/1999/xhtml"><span style="color:#fff !important" class="nodeLabel "><p>Publish DetectionMsg<br/>to /detection/results/</p></span></div></foreignObject></g></g></g></g></g></svg>